# xmcd
#
# Track frame offsets: 
#        150
#        13065
#        25807
#        40402
#        54043
#        67788
#        81382
#        95380
#        106777
#        120579
#        134367
#        145135
#        158189
#        171385
#        183372
#        195841
#        210151
#        220729
#        233975
#        245403
#        255473
#        267235
#        280795
#        292552
#        302853
#
# Disc length: 4209 seconds
#
# Revision: 2
# Processed by: cddbd v1.5.2PL0 Copyright (c) Steve Scherf et al.
# Submitted via: ExactAudioCopy v1.0b3
#
DISCID=4d106f19
DTITLE=Various Artist - The R and B Years 1951 Disk 1
DYEAR=1951
DGENRE=R&B
TTITLE0=Joe Liggins - Little Joe's Boogie
TTITLE1=Percy Mayfield - Strange Things Happening
TTITLE2=Floyd Dixon - Johnny Moore's Three Blazers - Telephone Blues
TTITLE3=Margie Day - Griffin Brothers - Little Red Rooster
TTITLE4=The Dominos - Do Something For Me
TTITLE5=Ray Charles - Baby, Let Me Hold Your Hand
TTITLE6=Charles Brown - Black Night
TTITLE7=Eunice Davis - Freddie Mitchell Orch. - Rock Little Daddy
TTITLE8=Tiny Grimes - Riverside Jump
TTITLE9=Buddy and Ella Johnson - No More Love
TTITLE10=Charlie Singleton - Elephant Rock
TTITLE11=Joe Liggins - Frankie Lee
TTITLE12=Percy Mayfield - Lost Love
TTITLE13=Johnny Otis - Mambo Boogie
TTITLE14=Little Esther and The Dominos - The Deacon Moves In
TTITLE15=Cecil Grant - Rock Little Baby
TTITLE16=B.B. King - Don't You Want A Man Like Me
TTITLE17=Ray-O-Vacs - Take Me Back To My Boots And Saddle
TTITLE18=Cootie Williams - The Shot Gun Boogie
TTITLE19=Fats Domino - Tired Of Crying
TTITLE20=Ruth Brown - I'll Wait For You
TTITLE21=Louis Jordan - Tear Drops From My Eyes
TTITLE22=Jimmy McCracklin - Looking For A Woman
TTITLE23=Jimmy Witherspoon - I Gotta Gal Who Lives Upon A Hill
TTITLE24=Clarance Gatemouth Brown - Justice Blues
EXTD=
EXTT0=
EXTT1=
EXTT2=
EXTT3=
EXTT4=
EXTT5=
EXTT6=
EXTT7=
EXTT8=
EXTT9=
EXTT10=
EXTT11=
EXTT12=
EXTT13=
EXTT14=
EXTT15=
EXTT16=
EXTT17=
EXTT18=
EXTT19=
EXTT20=
EXTT21=
EXTT22=
EXTT23=
EXTT24=
PLAYORDER=
